<svg xmlns="http://www.w3.org/2000/svg" style="display: none;"><symbol id="sm-facebook" viewBox="0 0 512 512"><title>sm-facebook</title><path style="fill:#385C8E;" d="M134.941,272.691h56.123v231.051c0,4.562,3.696,8.258,8.258,8.258h95.159 c4.562,0,8.258-3.696,8.258-8.258V273.78h64.519c4.195,0,7.725-3.148,8.204-7.315l9.799-85.061c0.269-2.34-0.472-4.684-2.038-6.44 c-1.567-1.757-3.81-2.763-6.164-2.763h-74.316V118.88c0-16.073,8.654-24.224,25.726-24.224c2.433,0,48.59,0,48.59,0 c4.562,0,8.258-3.698,8.258-8.258V8.319c0-4.562-3.696-8.258-8.258-8.258h-66.965C309.622,0.038,308.573,0,307.027,0 c-11.619,0-52.006,2.281-83.909,31.63c-35.348,32.524-30.434,71.465-29.26,78.217v62.352h-58.918c-4.562,0-8.258,3.696-8.258,8.258 v83.975C126.683,268.993,130.379,272.691,134.941,272.691z"/></symbol><symbol id="sm-twitter" viewBox="0 0 511.537 511.537"><title>sm-twitter</title><path style="fill:#65BBF2;" d="M357.038,49.172c-59.284,0.898-105.993,52.098-105.993,111.382v14.372 C145.052,156.063,92.954,127.319,35.466,67.137c-34.133,66.47,3.593,122.161,44.912,152.702c-27.846,0-51.2-3.593-69.165-19.761 c-1.796-0.898-3.593,0-2.695,1.797c15.27,55.691,67.368,96.112,107.789,107.789c-36.828,0-61.081,5.389-87.13-10.779 c-1.796-0.898-3.593,0-2.695,1.796c19.761,54.793,59.284,71.86,116.772,71.86c-28.744,21.558-67.368,43.116-140.126,44.912 c-2.695,0-4.491,3.593-1.796,5.389c26.947,22.456,93.418,39.523,186.835,39.523c153.6,0,278.456-136.533,278.456-305.404v-8.982 c24.253-8.982,37.726-30.54,44.912-52.098c0-0.898-0.898-1.796-1.797-1.796l-51.2,17.965c-0.898,0-1.796-1.796-0.898-2.695 C479.2,92.288,495.368,70.73,502.554,50.07c0,0-0.898-0.898-1.797-0.898c-24.253,9.881-47.607,19.761-65.572,25.151 c-2.695,0.898-6.288,0.898-8.982-0.898C414.526,67.137,379.494,49.172,357.038,49.172"/></symbol><symbol id="sm-twitch" viewBox="0 0 470 470"><title>sm-twitch</title><g> <rect x="265" y="132.5" style="fill:#7D3DAF;" width="40" height="100"/> <rect x="165" y="132.5" style="fill:#7D3DAF;" width="40" height="100"/> <path style="fill:#FFFFFF;" d="M405,67.5v190l-55,55h-95l-80,55v-55H85v-245H405z M305,232.5v-100h-40v100H305z M205,232.5v-100 h-40v100H205z"/> <path style="fill:#7D3DAF;" d="M460,230v97.5l-60,60H250l-60,65h-55v-90H10v-290l50-55h400V230z M405,257.5v-190H85v245h90v55 l80-55h95L405,257.5z"/> </g><g> <path style="fill:#231F20;" d="M460,7.5H60c-2.817,0-5.504,1.189-7.399,3.273l-50,55C0.927,67.614,0,70.013,0,72.5v290 c0,5.522,4.477,10,10,10h115v80c0,5.522,4.477,10,10,10h55c2.791,0,5.455-1.166,7.348-3.217l57.03-61.783H400 c2.652,0,5.196-1.054,7.071-2.929l60-60c1.875-1.876,2.929-4.419,2.929-7.071v-310C470,11.977,465.523,7.5,460,7.5z M450,323.357 L395.858,377.5H250c-2.791,0-5.455,1.166-7.348,3.217l-57.03,61.783H145v-80c0-5.522-4.477-10-10-10H20V76.366L64.424,27.5H450 V323.357z"/> <path style="fill:#231F20;" d="M85,322.5h80v45c0,3.714,2.058,7.121,5.345,8.851c1.462,0.769,3.061,1.149,4.654,1.149 c1.988,0,3.968-0.592,5.666-1.76l77.441-53.24H350c2.652,0,5.196-1.054,7.071-2.929l55-55c1.875-1.876,2.929-4.419,2.929-7.071 v-190c0-5.522-4.477-10-10-10H85c-5.523,0-10,4.478-10,10v245C75,318.022,79.477,322.5,85,322.5z M95,77.5h300v175.857 L345.858,302.5H255c-2.023,0-3.999,0.613-5.665,1.76L185,348.489V312.5c0-5.522-4.477-10-10-10H95V77.5z"/> <path style="fill:#231F20;" d="M215,232.5v-100c0-5.522-4.477-10-10-10h-40c-5.523,0-10,4.478-10,10v100c0,5.523,4.477,10,10,10 h40C210.523,242.5,215,238.023,215,232.5z M195,222.5h-20v-80h20V222.5z"/> <path style="fill:#231F20;" d="M265,242.5h40c5.523,0,10-4.477,10-10v-100c0-5.522-4.477-10-10-10h-40c-5.523,0-10,4.478-10,10 v100C255,238.023,259.477,242.5,265,242.5z M275,142.5h20v80h-20V142.5z"/> </g></symbol><symbol id="youtube" viewBox="0 0 461.001 461.001"><title>youtube</title><path style="fill:#F61C0D;" d="M365.257,67.393H95.744C42.866,67.393,0,110.259,0,163.137v134.728 c0,52.878,42.866,95.744,95.744,95.744h269.513c52.878,0,95.744-42.866,95.744-95.744V163.137 C461.001,110.259,418.135,67.393,365.257,67.393z M300.506,237.056l-126.06,60.123c-3.359,1.602-7.239-0.847-7.239-4.568V168.607 c0-3.774,3.982-6.22,7.348-4.514l126.06,63.881C304.363,229.873,304.298,235.248,300.506,237.056z"/></symbol><symbol id="arrow-down" viewBox="0 0 129 129"><title>arrow-down</title><path d="m121.3,34.6c-1.6-1.6-4.2-1.6-5.8,0l-51,51.1-51.1-51.1c-1.6-1.6-4.2-1.6-5.8,0-1.6,1.6-1.6,4.2 0,5.8l53.9,53.9c0.8,0.8 1.8,1.2 2.9,1.2 1,0 2.1-0.4 2.9-1.2l53.9-53.9c1.7-1.6 1.7-4.2 0.1-5.8z" fill="#FFFFFF"/></symbol></svg>