<svg xmlns="http://www.w3.org/2000/svg" xmlns:xlink="http://www.w3.org/1999/xlink" preserveAspectRatio="xMidYMid" width="28" height="21" viewBox="0 0 28 21">
  <defs>
    <style>
      .cls-1 {
        fill: #fff;
        fill-rule: evenodd;
      }
    </style>
  </defs>
  <path d="M27.000,21.000 L1.000,21.000 C0.448,21.000 -0.000,20.552 -0.000,20.000 L-0.000,19.000 C-0.000,18.448 0.448,18.000 1.000,18.000 L27.000,18.000 C27.552,18.000 28.000,18.448 28.000,19.000 L28.000,20.000 C28.000,20.552 27.552,21.000 27.000,21.000 ZM27.000,12.000 L1.000,12.000 C0.448,12.000 -0.000,11.552 -0.000,11.000 L-0.000,10.000 C-0.000,9.448 0.448,9.000 1.000,9.000 L27.000,9.000 C27.552,9.000 28.000,9.448 28.000,10.000 L28.000,11.000 C28.000,11.552 27.552,12.000 27.000,12.000 ZM27.000,3.000 L1.000,3.000 C0.448,3.000 -0.000,2.552 -0.000,2.000 L-0.000,1.000 C-0.000,0.448 0.448,-0.000 1.000,-0.000 L27.000,-0.000 C27.552,-0.000 28.000,0.448 28.000,1.000 L28.000,2.000 C28.000,2.552 27.552,3.000 27.000,3.000 Z" class="cls-1"/>
</svg>
